<?xml version="1.0" encoding="utf-8"?>
<!-- Generator: Adobe Illustrator 26.3.1, SVG Export Plug-In . SVG Version: 6.00 Build 0)  -->
<svg version="1.1" id="Layer_1" xmlns="http://www.w3.org/2000/svg" xmlns:xlink="http://www.w3.org/1999/xlink" x="0px" y="0px"
	 viewBox="0 0 595.3 841.9" style="enable-background:new 0 0 595.3 841.9;" xml:space="preserve">
<style type="text/css">
	.st0{fill:#231F20;}
</style>
<path class="st0" d="M322.9,420.8c0.2-1.4,0.4-2.8,0.4-4.3c0-14.4-11.7-26-26.2-26c-14.4,0-26.2,11.7-26.2,26c0,1.5,0.1,2.9,0.4,4.3
	c-4.5,0.9-7.9,5.5-7.9,10.9c0,5.7,3.9,10.4,8.8,10.8v0h7.4v-6.7v-4.3v-10.9h-5.4c-0.2-1.1-0.3-2.3-0.3-3.4
	c0-12.1,10.4-21.8,23.2-21.8s23.2,9.8,23.2,21.8c0,1.2-0.1,2.3-0.3,3.4h-5.3v10.7v4.2v6.4c-1.1,0.8-2.3,1.5-3.5,2.1
	c-3.2,1.5-6.5,2.3-10,2.4v-0.7h-8.9v0.7h-0.6v3h0.6v1.1h8.9v-1.1c4,0,7.8-0.9,11.4-2.7c2.3-1.1,4.5-2.6,6.4-4.3h3.1
	c4.9-0.4,8.8-5.3,8.8-11C331,426.1,327.5,421.6,322.9,420.8z M275,426.9v-0.4c0-1.2,0.5-2.1,1.2-2.3c0.1,0,0.1,0,0.2,0
	c0.8,0,1.4,1,1.4,2.3v2.8v4.7v2.7c0,1.3-0.6,2.3-1.4,2.3c-0.8,0-1.4-1-1.4-2.3V426.9z M319.5,436.7c0,1.3-0.6,2.3-1.4,2.3
	c-0.8,0-1.4-1-1.4-2.3v-2.9v-4.7v-2.6c0-1.3,0.6-2.3,1.4-2.3c0,0,0.1,0,0.1,0c0.7,0.1,1.3,1.1,1.3,2.2c0,0,0,0,0,0.1V436.7z"/>
</svg>
