<?xml version="1.0" encoding="utf-8"?>
<!-- Generator: Adobe Illustrator 26.3.1, SVG Export Plug-In . SVG Version: 6.00 Build 0)  -->
<svg version="1.1" id="Layer_1" xmlns="http://www.w3.org/2000/svg" xmlns:xlink="http://www.w3.org/1999/xlink" x="0px" y="0px"
	 viewBox="0 0 595.3 841.9" style="enable-background:new 0 0 595.3 841.9;" xml:space="preserve">
<style type="text/css">
	.st0{fill:#FFFFFF;}
</style>
<g>
	<circle class="st0" cx="309.3" cy="392.9" r="20.1"/>
	<g>
		<path d="M309.3,374.3c-10.2,0-18.6,8.3-18.6,18.6c0,10.2,8.3,18.6,18.6,18.6c10.2,0,18.6-8.3,18.6-18.6
			C327.8,382.6,319.5,374.3,309.3,374.3z M309.3,408.8c-8.8,0-16-7.2-16-16s7.2-16,16-16s16,7.2,16,16S318.1,408.8,309.3,408.8z"/>
		<g>
			<path d="M306.7,387.7c0,0.6,0.2,1.1,0.5,1.5c0.4,0.3,0.9,0.6,1.6,0.9v-4.7c-0.7,0.2-1.2,0.5-1.6,0.8
				C306.8,386.5,306.7,387,306.7,387.7z"/>
			<path d="M310.4,393.6v5.3c0.8-0.2,1.4-0.5,1.9-1c0.4-0.5,0.7-1.1,0.7-1.7c0-0.7-0.2-1.2-0.6-1.6
				C311.8,394.2,311.2,393.9,310.4,393.6z"/>
			<path d="M309.3,378.4c-8,0-14.5,6.5-14.5,14.5s6.5,14.5,14.5,14.5c8,0,14.5-6.5,14.5-14.5S317.3,378.4,309.3,378.4z M315.3,398.4
				c-0.4,0.8-1.1,1.5-1.9,2c-0.8,0.5-1.8,0.8-3,0.9v3.3h-1.5v-3.3c-0.9-0.1-1.8-0.3-2.5-0.7c-0.7-0.3-1.3-0.8-1.8-1.3
				c-0.5-0.5-0.8-1-1.1-1.6c-0.2-0.5-0.3-1.1-0.3-1.6l3-0.5c0.2,0.7,0.4,1.2,0.6,1.5c0.2,0.4,0.4,0.7,0.7,1c0.3,0.3,0.8,0.5,1.3,0.7
				v-5.6c-1.1-0.3-2-0.6-2.7-1c-0.7-0.4-1.3-0.9-1.8-1.6c-0.5-0.7-0.7-1.6-0.7-2.6c0-1.4,0.4-2.5,1.3-3.4s2.2-1.4,3.8-1.6v-1.3
				l1.5,0v1.3c0.9,0.1,1.6,0.3,2.2,0.5c0.6,0.3,1.2,0.7,1.6,1.2c0.4,0.4,0.6,0.8,0.8,1.3l-2.8,1.4c-0.3-1-0.9-1.7-1.9-2v5.1
				c1,0.3,1.8,0.5,2.4,0.8c0.6,0.2,1.1,0.6,1.6,1c0.5,0.4,0.9,1,1.2,1.6c0.3,0.6,0.4,1.3,0.4,2C315.9,396.8,315.7,397.6,315.3,398.4
				z"/>
		</g>
	</g>
</g>
<g>
	<circle class="st0" cx="276.8" cy="394.9" r="11.7"/>
	<g>
		<path d="M276.8,384c-6,0-10.8,4.8-10.8,10.8c0,6,4.8,10.8,10.8,10.8c6,0,10.8-4.8,10.8-10.8C287.6,388.9,282.8,384,276.8,384z
			 M276.8,404.2c-5.1,0-9.3-4.2-9.3-9.3s4.2-9.3,9.3-9.3c5.1,0,9.3,4.2,9.3,9.3S281.9,404.2,276.8,404.2z"/>
		<g>
			<path d="M275.3,391.8c0,0.4,0.1,0.7,0.3,0.8c0.2,0.2,0.5,0.4,0.9,0.5v-2.7c-0.4,0.1-0.7,0.3-0.9,0.5
				C275.4,391.2,275.3,391.5,275.3,391.8z"/>
			<path d="M277.4,395.3v3.1c0.5-0.1,0.8-0.3,1.1-0.6s0.4-0.6,0.4-1c0-0.4-0.1-0.7-0.4-1C278.3,395.7,277.9,395.5,277.4,395.3z"/>
			<path d="M276.8,386.4c-4.7,0-8.5,3.8-8.5,8.5s3.8,8.5,8.5,8.5s8.5-3.8,8.5-8.5S281.5,386.4,276.8,386.4z M280.3,398.1
				c-0.3,0.5-0.6,0.9-1.1,1.2c-0.5,0.3-1.1,0.5-1.8,0.5v1.9h-0.9v-1.9c-0.6-0.1-1-0.2-1.4-0.4c-0.4-0.2-0.8-0.4-1-0.7
				c-0.3-0.3-0.5-0.6-0.6-0.9c-0.1-0.3-0.2-0.6-0.2-0.9l1.8-0.3c0.1,0.4,0.2,0.7,0.3,0.9c0.1,0.2,0.2,0.4,0.4,0.6
				c0.2,0.2,0.4,0.3,0.8,0.4v-3.3c-0.6-0.2-1.2-0.4-1.6-0.6c-0.4-0.2-0.8-0.5-1-0.9c-0.3-0.4-0.4-0.9-0.4-1.5c0-0.8,0.3-1.5,0.8-2
				s1.3-0.8,2.2-0.9v-0.8l0.9,0v0.8c0.5,0.1,0.9,0.2,1.3,0.3c0.4,0.2,0.7,0.4,0.9,0.7c0.2,0.2,0.4,0.5,0.5,0.7l-1.6,0.8
				c-0.2-0.6-0.5-1-1.1-1.2v2.9c0.6,0.2,1.1,0.3,1.4,0.4c0.3,0.1,0.7,0.3,0.9,0.6c0.3,0.3,0.5,0.6,0.7,0.9c0.2,0.4,0.2,0.8,0.2,1.2
				C280.7,397.1,280.5,397.6,280.3,398.1z"/>
		</g>
	</g>
</g>
<g>
	<circle class="st0" cx="298.8" cy="419.3" r="27.1"/>
	<g>
		<path d="M298.8,394.3c-13.8,0-25,11.2-25,25s11.2,25,25,25s25-11.2,25-25S312.6,394.3,298.8,394.3z M298.8,440.8
			c-11.9,0-21.5-9.7-21.5-21.5s9.7-21.5,21.5-21.5s21.5,9.7,21.5,21.5S310.7,440.8,298.8,440.8z"/>
		<g>
			<path d="M295.3,412.3c0,0.9,0.2,1.5,0.7,2c0.5,0.4,1.2,0.8,2.2,1.2v-6.3c-0.9,0.3-1.6,0.6-2.1,1.1
				C295.6,410.8,295.3,411.4,295.3,412.3z"/>
			<path d="M300.3,420.4v7.2c1.1-0.2,2-0.7,2.6-1.3c0.6-0.7,0.9-1.4,0.9-2.3c0-0.9-0.3-1.7-0.9-2.2
				C302.3,421.2,301.4,420.7,300.3,420.4z"/>
			<path d="M298.8,399.8c-10.8,0-19.5,8.8-19.5,19.5s8.8,19.5,19.5,19.5s19.5-8.8,19.5-19.5S309.6,399.8,298.8,399.8z M306.9,426.8
				c-0.6,1.1-1.4,2-2.6,2.7c-1.1,0.7-2.5,1.1-4,1.2v4.4h-2.1v-4.4c-1.3-0.1-2.4-0.4-3.3-0.9c-1-0.5-1.7-1-2.4-1.7
				c-0.6-0.7-1.1-1.4-1.4-2.1c-0.3-0.7-0.5-1.5-0.5-2.2l4.1-0.7c0.3,0.9,0.6,1.6,0.8,2.1s0.5,0.9,1,1.3c0.4,0.4,1,0.7,1.8,0.9v-7.6
				c-1.5-0.4-2.7-0.9-3.7-1.3c-1-0.5-1.8-1.2-2.4-2.1s-0.9-2.1-0.9-3.5c0-1.9,0.6-3.4,1.8-4.6c1.2-1.2,2.9-1.9,5.2-2.1v-1.7l2.1,0
				v1.8c1.2,0.1,2.2,0.4,3,0.7c0.8,0.4,1.6,0.9,2.2,1.6c0.5,0.6,0.9,1.1,1.1,1.7l-3.7,1.9c-0.4-1.4-1.2-2.3-2.6-2.7v6.8
				c1.4,0.4,2.4,0.7,3.2,1c0.8,0.3,1.5,0.7,2.1,1.3c0.7,0.6,1.2,1.3,1.6,2.1c0.4,0.8,0.5,1.7,0.5,2.7
				C307.8,424.6,307.5,425.7,306.9,426.8z"/>
		</g>
	</g>
</g>
</svg>
