<?xml version="1.0" encoding="utf-8"?>
<!-- Generator: Adobe Illustrator 26.3.1, SVG Export Plug-In . SVG Version: 6.00 Build 0)  -->
<svg version="1.1" id="Layer_1" xmlns="http://www.w3.org/2000/svg" xmlns:xlink="http://www.w3.org/1999/xlink" x="0px" y="0px"
	 viewBox="0 0 595.3 841.9" style="enable-background:new 0 0 595.3 841.9;" xml:space="preserve">
<style type="text/css">
	.st0{fill:#231F20;}
</style>
<path class="st0" d="M335.7,420.6c0-9.4-3.5-18.2-9.9-25.1l0,0l-1.5-1.4c0,0,0,0,0,0l-1.4-1.3l0,0c-6.6-5.7-14.8-9-23.6-9.5v-0.1h-2
	h-2v0.1c-8.8,0.4-17.1,3.7-23.6,9.5l0,0l-1.4,1.3c0,0,0,0,0,0l-1.5,1.4l0,0c-6.2,6.6-9.7,15.1-9.9,24h-0.1l0,1.5c0,0.1,0,0.2,0,0.3
	l0.1,2.2h0.1c0.7,8.5,4.3,16.4,10.4,22.6l0,0l1.6,1.5l1.4,1.2l0,0c7,5.8,15.8,9,25,9c9.2,0,18-3.2,25-9l0,0l1.4-1.2l1.6-1.5l0,0
	C332,439.2,335.7,430.2,335.7,420.6z M322.2,443.5c-0.2-0.1-0.3-0.3-0.5-0.4c-0.2-0.1-0.4-0.3-0.5-0.4c-0.7-0.5-1.3-1-2-1.5
	c0,0-0.1,0-0.1-0.1c-0.7-0.5-1.4-0.9-2.2-1.4c-0.2-0.1-0.4-0.2-0.6-0.3c-0.2-0.1-0.4-0.2-0.6-0.4l0,0l0,0c0-0.1,0-0.2,0.1-0.2
	c0.1-0.2,0.1-0.5,0.2-0.7c0.1-0.5,0.3-0.9,0.4-1.4c0.1-0.3,0.1-0.5,0.2-0.8c0.1-0.5,0.2-1,0.4-1.5c0.1-0.2,0.1-0.5,0.2-0.7
	c0.2-0.7,0.3-1.4,0.4-2.2c0,0,0,0,0,0c0.1-0.7,0.2-1.5,0.3-2.3c0-0.2,0.1-0.5,0.1-0.7c0.1-0.5,0.1-1.1,0.2-1.6
	c0-0.3,0.1-0.6,0.1-0.8c0-0.5,0.1-1,0.1-1.6c0-0.3,0-0.5,0-0.8c0-0.1,0-0.2,0-0.3h0h13.2C330.9,431.1,327.6,438,322.2,443.5z
	 M309.9,443c-0.2,0.3-0.3,0.7-0.5,1c-0.1,0.2-0.2,0.3-0.2,0.5c-0.2,0.3-0.3,0.6-0.5,0.8c-0.1,0.1-0.2,0.3-0.3,0.4
	c-0.2,0.3-0.4,0.6-0.5,0.9c-0.1,0.1-0.1,0.2-0.2,0.3c-0.2,0.4-0.5,0.7-0.8,1.1c-0.1,0.1-0.1,0.1-0.2,0.2c-0.2,0.3-0.4,0.5-0.6,0.8
	c-0.1,0.1-0.2,0.2-0.3,0.3c-0.2,0.2-0.4,0.4-0.6,0.6c-0.1,0.1-0.2,0.2-0.3,0.3c-0.2,0.2-0.4,0.4-0.6,0.6c-0.1,0.1-0.2,0.2-0.3,0.2
	c-0.6,0.5-1.2,0.9-1.8,1.3c-0.1,0.1-0.2,0.1-0.3,0.2c-0.2,0.1-0.4,0.2-0.6,0.4c-0.1,0.1-0.2,0.1-0.3,0.2c-0.2,0.1-0.4,0.2-0.6,0.3
	c-0.1,0-0.2,0.1-0.3,0.1c-0.3,0.1-0.5,0.2-0.8,0.2c-0.1,0-0.1,0-0.2,0c0,0,0,0,0,0v-15.1c0.6,0,1.2,0.1,1.7,0.1c0.2,0,0.4,0,0.5,0.1
	c0.4,0.1,0.8,0.1,1.3,0.2c0.2,0,0.4,0.1,0.5,0.1c0.5,0.1,1,0.2,1.5,0.3c0.1,0,0.1,0,0.2,0c0.6,0.1,1.1,0.3,1.7,0.4
	c0.2,0,0.3,0.1,0.5,0.1c0.4,0.1,0.8,0.2,1.2,0.4c0.2,0.1,0.3,0.1,0.5,0.2c0.5,0.2,0.9,0.3,1.4,0.5c0.1,0,0.2,0.1,0.2,0.1
	c0,0,0,0,0.1,0c-0.2,0.5-0.4,0.9-0.6,1.4C310,442.7,309.9,442.8,309.9,443z M295.2,453.7c-0.1,0-0.1,0-0.2,0
	c-0.3-0.1-0.5-0.1-0.8-0.2c-0.1,0-0.2-0.1-0.3-0.1c-0.2-0.1-0.4-0.2-0.6-0.3c-0.1-0.1-0.2-0.1-0.3-0.2c-0.2-0.1-0.4-0.2-0.6-0.4
	c-0.1-0.1-0.2-0.1-0.3-0.2c-0.6-0.4-1.2-0.8-1.8-1.3c-0.1-0.1-0.2-0.2-0.3-0.2c-0.2-0.2-0.4-0.4-0.6-0.6c-0.1-0.1-0.2-0.2-0.3-0.3
	c-0.2-0.2-0.4-0.4-0.6-0.6c-0.1-0.1-0.2-0.2-0.3-0.3c-0.2-0.3-0.4-0.5-0.6-0.8c-0.1-0.1-0.1-0.1-0.2-0.2c-0.3-0.3-0.5-0.7-0.8-1.1
	c-0.1-0.1-0.1-0.2-0.2-0.3c-0.2-0.3-0.4-0.6-0.5-0.9c-0.1-0.1-0.2-0.3-0.3-0.4c-0.2-0.3-0.3-0.6-0.5-0.8c-0.1-0.2-0.2-0.3-0.2-0.5
	c-0.2-0.3-0.3-0.7-0.5-1c-0.1-0.1-0.1-0.3-0.2-0.4c-0.2-0.5-0.4-0.9-0.6-1.4c0,0,0,0,0,0c0.1,0,0.2-0.1,0.2-0.1
	c0.5-0.2,0.9-0.4,1.4-0.5c0.2-0.1,0.3-0.1,0.5-0.2c0.4-0.1,0.8-0.3,1.2-0.4c0.2,0,0.3-0.1,0.5-0.1c0.6-0.2,1.1-0.3,1.7-0.4
	c0.1,0,0.1,0,0.2,0c0.5-0.1,1-0.2,1.5-0.3c0.2,0,0.4-0.1,0.5-0.1c0.4-0.1,0.8-0.1,1.3-0.2c0.2,0,0.4,0,0.5-0.1
	c0.6-0.1,1.2-0.1,1.7-0.1L295.2,453.7C295.2,453.7,295.2,453.7,295.2,453.7z M283.5,400.7c0.2-0.4,0.4-0.9,0.5-1.3
	c0.1-0.2,0.1-0.3,0.2-0.5c0.1-0.3,0.3-0.6,0.4-1c0.1-0.2,0.2-0.3,0.3-0.5c0.2-0.3,0.3-0.6,0.5-0.9c0.1-0.2,0.2-0.3,0.3-0.5
	c0.2-0.3,0.4-0.7,0.6-1c0.1-0.1,0.1-0.2,0.2-0.3c0.3-0.4,0.5-0.8,0.8-1.2c0.1-0.1,0.1-0.2,0.2-0.3c0.2-0.3,0.4-0.5,0.6-0.8
	c0.1-0.1,0.2-0.2,0.3-0.4c0.2-0.2,0.4-0.4,0.6-0.6c0.1-0.1,0.2-0.2,0.3-0.3c0.2-0.2,0.4-0.4,0.6-0.6c0.1-0.1,0.2-0.2,0.3-0.3
	c0.3-0.3,0.6-0.5,0.8-0.7c0,0,0,0,0.1,0c0.3-0.2,0.6-0.5,0.9-0.7c0.1-0.1,0.2-0.1,0.3-0.2c0.2-0.1,0.4-0.3,0.7-0.4
	c0.1-0.1,0.2-0.1,0.3-0.2c0.2-0.1,0.4-0.2,0.6-0.3c0.1,0,0.2-0.1,0.3-0.1c0.2-0.1,0.5-0.2,0.7-0.2c0.1,0,0.2-0.1,0.3-0.1
	c0,0,0,0,0.1,0v16.2c0,0,0,0,0,0c0,0,0,0-0.1,0c-0.6,0-1.2-0.1-1.7-0.1c-0.2,0-0.4,0-0.6-0.1c-0.4-0.1-0.9-0.1-1.3-0.2
	c-0.2,0-0.4-0.1-0.6-0.1c-0.5-0.1-1-0.2-1.5-0.3c-0.1,0-0.2,0-0.2,0c-0.6-0.1-1.2-0.3-1.7-0.5c-0.2,0-0.3-0.1-0.5-0.1
	c-0.4-0.1-0.9-0.3-1.3-0.4c-0.2-0.1-0.4-0.1-0.5-0.2c-0.4-0.2-0.9-0.3-1.3-0.5c-0.1,0-0.2-0.1-0.4-0.1c0,0-0.1,0-0.1-0.1
	c0,0,0,0,0,0C283.5,400.8,283.5,400.8,283.5,400.7z M299.3,387.5c0.1,0,0.2,0.1,0.3,0.1c0.2,0.1,0.5,0.1,0.7,0.2
	c0.1,0,0.2,0.1,0.3,0.1c0.2,0.1,0.4,0.2,0.6,0.3c0.1,0.1,0.2,0.1,0.3,0.2c0.2,0.1,0.4,0.2,0.7,0.4c0.1,0.1,0.2,0.1,0.3,0.2
	c0.3,0.2,0.6,0.4,0.9,0.7c0,0,0,0,0.1,0c0.3,0.2,0.6,0.5,0.8,0.7c0.1,0.1,0.2,0.2,0.3,0.3c0.2,0.2,0.4,0.4,0.6,0.6
	c0.1,0.1,0.2,0.2,0.3,0.3c0.2,0.2,0.4,0.4,0.6,0.6c0.1,0.1,0.2,0.2,0.3,0.4c0.2,0.3,0.4,0.5,0.6,0.8c0.1,0.1,0.1,0.2,0.2,0.3
	c0.3,0.4,0.5,0.8,0.8,1.2c0.1,0.1,0.1,0.2,0.2,0.3c0.2,0.3,0.4,0.6,0.6,1c0.1,0.1,0.2,0.3,0.3,0.5c0.2,0.3,0.3,0.6,0.5,0.9
	c0.1,0.2,0.2,0.3,0.2,0.5c0.2,0.3,0.3,0.7,0.5,1c0.1,0.2,0.1,0.3,0.2,0.5c0.2,0.4,0.4,0.9,0.6,1.4c0,0.1,0,0.1,0.1,0.2c0,0,0,0,0,0
	c0,0-0.1,0-0.1,0.1c-0.1,0.1-0.2,0.1-0.4,0.1c-0.4,0.2-0.9,0.4-1.3,0.5c-0.2,0.1-0.4,0.1-0.5,0.2c-0.4,0.1-0.8,0.3-1.3,0.4
	c-0.2,0-0.3,0.1-0.5,0.1c-0.6,0.2-1.2,0.3-1.7,0.5c-0.1,0-0.2,0-0.2,0c-0.5,0.1-1,0.2-1.5,0.3c-0.2,0-0.4,0.1-0.6,0.1
	c-0.4,0.1-0.9,0.1-1.3,0.2c-0.2,0-0.4,0-0.6,0.1c-0.6,0.1-1.2,0.1-1.7,0.1c0,0,0,0-0.1,0c0,0,0,0,0,0L299.3,387.5
	C299.3,387.5,299.3,387.5,299.3,387.5z M310.5,436.8c-0.6-0.2-1.1-0.4-1.7-0.6c-0.2-0.1-0.4-0.1-0.5-0.2c-0.4-0.1-0.8-0.2-1.2-0.3
	c-0.2-0.1-0.4-0.1-0.7-0.2c-0.4-0.1-0.7-0.2-1.1-0.2c-0.2,0-0.5-0.1-0.7-0.1c-0.4-0.1-0.7-0.1-1.1-0.2c-0.2,0-0.4-0.1-0.7-0.1
	c-0.4-0.1-0.8-0.1-1.2-0.1c-0.2,0-0.4,0-0.6-0.1c-0.6-0.1-1.2-0.1-1.8-0.1v-11.1h15.1c0,0.1,0,0.1,0,0.2c-0.1,1.1-0.1,2.1-0.2,3.2
	c0,0.2-0.1,0.5-0.1,0.7c-0.1,1-0.2,1.9-0.4,2.9c0,0.1,0,0.2-0.1,0.3c-0.2,1-0.4,2-0.6,3c-0.1,0.2-0.1,0.5-0.2,0.7
	c-0.2,1-0.5,1.9-0.8,2.9c0,0,0,0,0,0c-0.4-0.2-0.9-0.4-1.4-0.5C310.6,436.9,310.6,436.9,310.5,436.8z M295.2,434.6
	c-0.6,0-1.2,0.1-1.8,0.1c-0.2,0-0.4,0-0.6,0.1c-0.4,0-0.8,0.1-1.2,0.1c-0.2,0-0.5,0.1-0.7,0.1c-0.4,0.1-0.7,0.1-1.1,0.2
	c-0.2,0-0.5,0.1-0.7,0.1c-0.4,0.1-0.7,0.2-1.1,0.2c-0.2,0.1-0.4,0.1-0.7,0.2c-0.4,0.1-0.8,0.2-1.2,0.3c-0.2,0.1-0.4,0.1-0.5,0.2
	c-0.6,0.2-1.1,0.4-1.7,0.6c-0.1,0-0.1,0-0.2,0.1c-0.5,0.2-0.9,0.3-1.3,0.5c0,0,0,0,0,0c-0.3-0.9-0.5-1.9-0.8-2.9
	c-0.1-0.2-0.1-0.5-0.2-0.7c-0.2-1-0.4-2-0.6-3c0-0.1,0-0.2,0-0.3c-0.2-0.9-0.3-1.9-0.4-2.9c0-0.2-0.1-0.5-0.1-0.7
	c-0.1-1-0.2-2.1-0.2-3.2c0,0,0-0.1,0-0.1h15.1V434.6L295.2,434.6z M284.5,405.6c0.5,0.2,0.9,0.3,1.4,0.5c0.2,0.1,0.4,0.1,0.6,0.2
	c0.5,0.1,1.1,0.3,1.6,0.4c0.1,0,0.2,0.1,0.3,0.1c0.6,0.1,1.3,0.3,1.9,0.4c0.2,0,0.4,0.1,0.5,0.1c0.5,0.1,1,0.1,1.5,0.2
	c0.2,0,0.4,0.1,0.6,0.1c0.5,0.1,1,0.1,1.6,0.1c0.2,0,0.3,0,0.5,0c0,0,0.1,0,0.1,0v0v11.8h-15.2c0-0.3,0-0.6,0-0.9c0-0.2,0-0.5,0-0.7
	c0-0.6,0.1-1.2,0.1-1.7c0-0.1,0-0.3,0-0.4c0.1-0.7,0.1-1.4,0.2-2.1c0-0.2,0-0.4,0.1-0.6c0.1-0.5,0.1-1,0.2-1.6
	c0-0.2,0.1-0.5,0.1-0.7c0.1-0.5,0.2-0.9,0.2-1.4c0-0.2,0.1-0.5,0.1-0.7c0.1-0.5,0.2-1,0.3-1.4c0-0.2,0.1-0.4,0.1-0.6
	c0.2-0.6,0.3-1.3,0.5-1.9c0.6,0.3,1.2,0.5,1.8,0.7C284.2,405.5,284.4,405.6,284.5,405.6z M299.9,407.6c0.5,0,1-0.1,1.6-0.1
	c0.2,0,0.4,0,0.6-0.1c0.5-0.1,1-0.1,1.5-0.2c0.2,0,0.4-0.1,0.5-0.1c0.7-0.1,1.3-0.2,1.9-0.4c0.1,0,0.2-0.1,0.3-0.1
	c0.5-0.1,1.1-0.3,1.6-0.4c0.2-0.1,0.4-0.1,0.6-0.2c0.5-0.1,0.9-0.3,1.4-0.5c0.2-0.1,0.4-0.1,0.5-0.2c0.6-0.2,1.2-0.4,1.8-0.7
	c0.2,0.6,0.3,1.3,0.5,1.9c0,0.2,0.1,0.4,0.1,0.6c0.1,0.5,0.2,1,0.3,1.4c0,0.2,0.1,0.5,0.1,0.7c0.1,0.5,0.2,0.9,0.2,1.4
	c0,0.2,0.1,0.5,0.1,0.7c0.1,0.5,0.1,1,0.2,1.5c0,0.2,0.1,0.4,0.1,0.6c0.1,0.7,0.1,1.4,0.2,2.1c0,0.1,0,0.3,0,0.4
	c0,0.6,0.1,1.2,0.1,1.7c0,0.2,0,0.5,0,0.7c0,0.3,0,0.6,0,0.9h-15.2v-11.8v0c0,0,0.1,0,0.1,0C299.5,407.7,299.7,407.6,299.9,407.6z
	 M318.4,419.5L318.4,419.5c0-0.3,0-0.6-0.1-0.9c0-0.3,0-0.6,0-0.9c0-0.6-0.1-1.1-0.1-1.6c0-0.2,0-0.5,0-0.7
	c-0.1-0.8-0.1-1.6-0.2-2.3c0-0.1,0-0.2,0-0.3c-0.1-0.7-0.2-1.3-0.3-2c0-0.3-0.1-0.5-0.1-0.8c-0.1-0.5-0.2-1-0.3-1.5
	c-0.1-0.3-0.1-0.6-0.2-0.8c-0.1-0.5-0.2-0.9-0.3-1.4c-0.1-0.3-0.1-0.6-0.2-0.9c-0.1-0.5-0.2-0.9-0.4-1.3c-0.1-0.3-0.1-0.5-0.2-0.8
	c0-0.1,0-0.2-0.1-0.3l0,0l0,0c0.3-0.1,0.5-0.3,0.7-0.4c0.2-0.1,0.4-0.2,0.6-0.3c0.8-0.5,1.5-0.9,2.3-1.4c0.1,0,0.1-0.1,0.2-0.2
	c0.7-0.5,1.3-1,1.9-1.5c0.2-0.2,0.4-0.3,0.6-0.5c0.2-0.1,0.3-0.3,0.5-0.4c5.5,5.9,8.6,13.3,8.8,21.3H318.4z M319.9,395.5
	c-0.1,0.1-0.2,0.2-0.3,0.2c-0.1,0.1-0.2,0.2-0.3,0.3c-0.6,0.5-1.3,1-1.9,1.5c0,0,0,0,0,0c-0.7,0.5-1.3,0.9-2,1.3
	c-0.1,0.1-0.2,0.1-0.4,0.2c-0.1,0.1-0.2,0.1-0.3,0.2c-0.2-0.6-0.5-1.1-0.7-1.7c-0.1-0.2-0.1-0.3-0.2-0.5c-0.2-0.4-0.4-0.8-0.6-1.2
	c-0.1-0.2-0.2-0.3-0.3-0.5c-0.2-0.4-0.5-0.9-0.7-1.3c-0.1-0.1-0.1-0.2-0.2-0.3c-0.3-0.5-0.6-1-0.9-1.4c-0.1-0.1-0.2-0.2-0.2-0.4
	c-0.2-0.3-0.5-0.7-0.7-1c-0.1-0.1-0.2-0.3-0.3-0.4c-0.3-0.3-0.5-0.7-0.8-1c-0.1-0.1-0.1-0.2-0.2-0.2c0,0,0-0.1-0.1-0.1
	C312.8,390.5,316.6,392.7,319.9,395.5z M285.6,389.2c-0.1,0.1-0.1,0.2-0.2,0.2c-0.3,0.3-0.5,0.6-0.8,1c-0.1,0.1-0.2,0.3-0.3,0.4
	c-0.2,0.3-0.5,0.7-0.7,1c-0.1,0.1-0.2,0.2-0.2,0.4c-0.3,0.5-0.6,0.9-0.9,1.5c-0.1,0.1-0.1,0.2-0.1,0.3c-0.2,0.4-0.5,0.9-0.7,1.3
	c-0.1,0.2-0.2,0.3-0.2,0.5c-0.2,0.4-0.4,0.8-0.6,1.3c-0.1,0.1-0.1,0.3-0.2,0.4c-0.2,0.5-0.5,1.1-0.7,1.7c-0.1-0.1-0.2-0.1-0.3-0.2
	c-0.1-0.1-0.2-0.1-0.4-0.2c-0.7-0.4-1.4-0.8-2-1.3c0,0,0,0,0,0c-0.7-0.5-1.3-1-1.9-1.5c-0.1-0.1-0.2-0.2-0.3-0.3
	c-0.1-0.1-0.2-0.2-0.3-0.2C277.9,392.7,281.6,390.5,285.6,389.2C285.7,389.2,285.6,389.2,285.6,389.2z M271.7,398.3
	c0.2,0.1,0.3,0.3,0.5,0.4c0.2,0.2,0.4,0.3,0.6,0.5c0.6,0.5,1.3,1,1.9,1.5c0.1,0.1,0.1,0.1,0.2,0.2c0.7,0.5,1.5,1,2.3,1.4
	c0.2,0.1,0.4,0.2,0.6,0.3c0.2,0.1,0.5,0.3,0.7,0.4l0,0l0,0c0,0.1,0,0.2-0.1,0.3c-0.1,0.3-0.1,0.5-0.2,0.8c-0.1,0.4-0.2,0.9-0.4,1.3
	c-0.1,0.3-0.1,0.6-0.2,0.9c-0.1,0.5-0.2,0.9-0.3,1.4c-0.1,0.3-0.1,0.6-0.2,0.8c-0.1,0.5-0.2,1-0.3,1.5c0,0.3-0.1,0.5-0.1,0.8
	c-0.1,0.6-0.2,1.3-0.3,2c0,0.1,0,0.2,0,0.3c-0.1,0.8-0.2,1.5-0.2,2.3c0,0.2,0,0.5,0,0.7c0,0.5-0.1,1.1-0.1,1.6c0,0.3,0,0.6,0,0.9
	c0,0.3,0,0.6,0,0.9h0h-13.2C263.1,411.6,266.2,404.1,271.7,398.3z M276.1,423.5L276.1,423.5c0,0.1,0,0.2,0.1,0.3c0,0.3,0,0.5,0,0.8
	c0,0.5,0.1,1.1,0.1,1.6c0,0.3,0,0.5,0.1,0.8c0.1,0.5,0.1,1.1,0.2,1.6c0,0.2,0.1,0.5,0.1,0.7c0.1,0.8,0.2,1.5,0.3,2.3c0,0,0,0,0,0
	c0.1,0.7,0.3,1.5,0.4,2.2c0,0.2,0.1,0.5,0.2,0.7c0.1,0.5,0.2,1,0.4,1.5c0.1,0.2,0.1,0.5,0.2,0.7c0.1,0.5,0.3,1,0.4,1.4
	c0.1,0.2,0.1,0.4,0.2,0.7c0,0.1,0,0.2,0.1,0.3l0,0l0,0c-0.2,0.1-0.4,0.2-0.6,0.4c-0.2,0.1-0.4,0.2-0.6,0.3c-0.7,0.4-1.5,0.9-2.2,1.4
	c0,0-0.1,0-0.1,0.1c-0.7,0.5-1.3,1-2,1.5c-0.2,0.1-0.4,0.3-0.5,0.4c-0.2,0.1-0.4,0.3-0.5,0.4c-5.4-5.5-8.6-12.5-9.3-20H276.1z
	 M275.3,446.2c0,0,0.1-0.1,0.1-0.1c0.7-0.6,1.5-1.1,2.3-1.7c0.1-0.1,0.2-0.1,0.2-0.2c0.7-0.5,1.4-0.9,2.2-1.3c0.1,0,0.1-0.1,0.2-0.1
	c0.2,0.5,0.4,1,0.7,1.5c0.1,0.1,0.1,0.3,0.2,0.4c0.2,0.4,0.4,0.8,0.6,1.2c0.1,0.1,0.1,0.3,0.2,0.4c0.3,0.5,0.5,1,0.8,1.5
	c0,0.1,0.1,0.1,0.1,0.2c0.3,0.4,0.5,0.8,0.8,1.2c0.1,0.1,0.2,0.3,0.3,0.4c0.2,0.4,0.5,0.7,0.8,1c0.1,0.1,0.1,0.2,0.2,0.2
	c0.3,0.3,0.6,0.7,0.8,1C281.9,450.7,278.4,448.8,275.3,446.2z M309.6,451c0.1-0.1,0.1-0.2,0.2-0.2c0.3-0.3,0.5-0.7,0.8-1
	c0.1-0.1,0.2-0.3,0.3-0.4c0.3-0.4,0.5-0.8,0.8-1.2c0-0.1,0.1-0.1,0.1-0.2c0.3-0.5,0.6-1,0.8-1.5c0.1-0.1,0.1-0.3,0.2-0.4
	c0.2-0.4,0.4-0.8,0.6-1.2c0.1-0.1,0.1-0.3,0.2-0.4c0.2-0.5,0.5-1,0.7-1.5c0.1,0,0.1,0.1,0.2,0.1c0.7,0.4,1.5,0.9,2.2,1.3
	c0.1,0,0.2,0.1,0.2,0.1c0.8,0.5,1.5,1.1,2.3,1.7c0,0,0.1,0.1,0.1,0.1c-3.1,2.5-6.7,4.5-10.4,5.8C309.1,451.7,309.4,451.3,309.6,451z
	"/>
</svg>
