<?xml version="1.0" encoding="utf-8"?>
<!-- Generator: Adobe Illustrator 26.3.1, SVG Export Plug-In . SVG Version: 6.00 Build 0)  -->
<svg version="1.1" id="Layer_1" xmlns="http://www.w3.org/2000/svg" xmlns:xlink="http://www.w3.org/1999/xlink" x="0px" y="0px"
	 viewBox="0 0 595.3 841.9" style="enable-background:new 0 0 595.3 841.9;" xml:space="preserve">
<style type="text/css">
	.st0{fill-rule:evenodd;clip-rule:evenodd;fill:#0069B4;}
</style>
<g>
	<path class="st0" d="M295.2,409.2L295.2,409.2L295.2,409.2L295.2,409.2L295.2,409.2c0.5,0,1.1-0.3,1.1-1.1c0-1.2-1-2.2-1.1-2.2l0,0
		l0,0l0,0l0,0c-0.1,0.1-1.1,1-1.1,2.2C294,408.9,294.7,409.2,295.2,409.2L295.2,409.2z"/>
	<path class="st0" d="M288.2,416.2L288.2,416.2L288.2,416.2L288.2,416.2L288.2,416.2c0-0.5-0.3-1.1-1.1-1.1c-1.2,0-2.2,1-2.2,1.1
		l0,0l0,0l0,0l0,0c0.1,0.1,1,1.1,2.2,1.1C287.9,417.3,288.2,416.7,288.2,416.2L288.2,416.2z"/>
	<path class="st0" d="M300.2,411.2L300.2,411.2L300.2,411.2L300.2,411.2c0.4,0.3,1,0.6,1.6,0c0.9-0.8,0.9-2.2,0.9-2.4l0,0l0,0l0,0
		l0,0c-0.1,0-1.6,0-2.5,0.8C299.6,410.2,299.8,410.8,300.2,411.2L300.2,411.2L300.2,411.2z"/>
	<path class="st0" d="M290.2,411.2L290.2,411.2L290.2,411.2L290.2,411.2L290.2,411.2c0.3-0.3,0.6-1,0-1.5c-0.8-0.8-2.2-0.8-2.4-0.8
		l0,0l0,0l0,0l0,0c0,0.1,0,1.5,0.8,2.4C289.2,411.8,289.8,411.5,290.2,411.2L290.2,411.2z"/>
	<path class="st0" d="M309.2,428.7c-3.5,1.7-5.9,0.4-8.2-0.9c-1.6-1-3.2-1.9-5.1-1.3l0,0l0,0c-0.6,0.3-1.1,0.4-1.8,0.4
		c-2.3,0-4.2-1.8-4.2-4.2c0-2.3,1.9-4.2,4.2-4.2c0.3,0,0.6,0,0.9,0.1c0.7,0.1,0.7,0.1,0.7,0.1c0.4-0.6,0.4-0.6,0.4-0.6
		c1.1-1.3,2.8-2.1,4.4-2.1c2.3,0,4.4,1.3,5.2,3.5c0.2,0.4,0.2,0.4,0.2,0.4c0.5,0.2,0.5,0.2,0.5,0.2c1.2,0.4,2,1.4,2,2.7
		c0,1.4-1.1,2.6-2.5,2.8H306c-1.2,0-2.4-0.6-3.6-1.4c-1.4-0.8-3-1.8-4.9-1.8c-0.6,0-1.1,0.5-1.1,1.1s0.5,1.1,1.1,1.1
		c1.3,0,2.5,0.7,3.7,1.5c1.5,0.8,3,1.7,4.8,1.7c0,0,0,0,0.1,0c0,0.1,0,0.1,0,0.1c2.6-0.2,4.7-2.4,4.7-5.1c0-2-1.2-3.9-3-4.7
		c-1.3-2.7-4.1-4.4-7.1-4.4c-0.2,0-0.4,0-0.7,0c-0.8-1.7-2.7-2.9-4.7-2.9c-3,0-5.4,2.4-5.4,5.4c0,0.5,0.1,1,0.2,1.4
		c-1.5,1.2-2.4,3-2.4,5c0,3.6,2.9,6.5,6.5,6.5c0.8,0,1.7-0.1,2.5-0.4c-0.1,0-0.1,0-0.1,0c0.1-0.1,0.1-0.1,0.1-0.1
		c0.8-0.3,1.7,0.2,3.2,1.1c1.6,0.9,3.6,2,6.1,2c1.2,0,2.6-0.3,4.2-1c0.6-0.3,0.8-0.9,0.6-1.5C310.5,428.7,309.8,428.4,309.2,428.7
		L309.2,428.7z"/>
	<path class="st0" d="M303.1,433.3c-0.3-0.2-0.6-0.4-0.9-0.6c-2.2-1.5-3.9-2.7-7.2-2.3c-0.6,0.1-1.1,0.6-1,1.3s0.6,1.1,1.3,1
		c2.4-0.4,3.5,0.4,5.5,1.8c0.3,0.2,0.6,0.4,0.9,0.6c0.2,0.1,0.4,0.2,0.6,0.2c0.4,0,0.7-0.1,0.9-0.5
		C303.8,434.3,303.6,433.6,303.1,433.3L303.1,433.3z"/>
</g>
</svg>
