<?xml version="1.0" encoding="utf-8"?>
<!-- Generator: Adobe Illustrator 26.3.1, SVG Export Plug-In . SVG Version: 6.00 Build 0)  -->
<svg version="1.1" id="Layer_1" xmlns="http://www.w3.org/2000/svg" xmlns:xlink="http://www.w3.org/1999/xlink" x="0px" y="0px"
	 viewBox="0 0 595.3 841.9" style="enable-background:new 0 0 595.3 841.9;" xml:space="preserve">
<style type="text/css">
	.st0{fill:#231F20;}
</style>
<path class="st0" d="M331.5,420.6c0-7.3-2.3-14.1-6.2-19.6l0.5-0.5c1-1,1-2.7,0-3.8l-1.1-1.1c-0.9-0.9-2.2-1-3.2-0.4
	c0.6-1,0.4-2.3-0.4-3.2l-1.1-1.1c-1-1-2.7-1-3.8,0l-0.8,0.8c-5.3-3.4-11.6-5.3-18.3-5.3c-6.9,0-13.3,2-18.7,5.6l-1-1
	c-1-1-2.7-1-3.8,0l-1.1,1.1c-0.9,0.9-1,2.2-0.4,3.2c-1-0.6-2.3-0.4-3.2,0.4l-1.1,1.1c-1,1-1,2.7,0,3.8l0.9,0.9
	c-3.8,5.5-6,12.1-6,19.3c0,6.7,1.9,12.9,5.3,18.2L268,439c-1,1-1,2.7,0,3.8l1.1,1.1c0.9,0.9,2.2,1,3.2,0.4c-0.6,1-0.4,2.3,0.4,3.2
	l1.1,1.1c1,1,2.7,1,3.7,0c5.6,3.9,12.4,6.3,19.7,6.3c7.2,0,13.9-2.2,19.4-6c1,0.8,2.5,0.7,3.4-0.3l1.1-1.1c0.8-0.8,1-1.9,0.5-2.9
	c0,0,0.1-0.1,0.1-0.2c1,0.4,2.1,0.2,2.9-0.5l1.1-1.1c1-1,1-2.5,0.1-3.6C329.5,433.8,331.5,427.4,331.5,420.6z M325.5,420.6
	c0,5.2-1.4,10.1-3.9,14.2l-3.1-3.1c1.8-3.3,2.8-7.2,2.8-11.2c0-4.5-1.2-8.7-3.4-12.3l3-3C323.8,409.7,325.5,414.9,325.5,420.6z
	 M287.9,434.5l-1.1-1.1c-0.9-0.9-2.2-1-3.2-0.4c0.6-1,0.4-2.3-0.4-3.2l-1.1-1.1c-0.9-0.9-2.4-1-3.4-0.3c-1-2.4-1.6-5.1-1.6-7.8
	c0-3.3,0.8-6.5,2.3-9.2c0.9,0.3,2,0.1,2.7-0.6l1.1-1.1c0.9-0.9,1-2.2,0.4-3.2c1,0.6,2.3,0.4,3.2-0.4l1.1-1.1
	c0.7-0.7,0.9-1.6,0.7-2.5c2.6-1.3,5.6-2,8.7-2c2.9,0,5.6,0.6,8.1,1.7c-0.3,0.9-0.1,2,0.6,2.7l1.1,1.1c0.9,0.9,2.2,1,3.2,0.4
	c-0.6,1-0.4,2.3,0.4,3.2l1.1,1.1c0.9,0.9,2.2,1,3.2,0.4c1.5,2.8,2.4,6,2.4,9.4c0,2.9-0.6,5.7-1.8,8.2l-0.1-0.1c-1-1-2.7-1-3.8,0
	l-1.1,1.1c-0.9,0.9-1,2.2-0.4,3.2c-1-0.6-2.3-0.4-3.2,0.4l-1.1,1.1c-1,1-1,2.7,0,3.8l0.3,0.3c-2.7,1.4-5.8,2.2-9,2.2
	c-3.4,0-6.6-0.9-9.4-2.4l0.1-0.1C288.9,437.2,288.9,435.5,287.9,434.5z M297.2,392.3c5.1,0,9.8,1.3,13.9,3.7l-3.1,3.1
	c-3.3-1.7-7-2.6-10.9-2.6c-4.1,0-7.9,1-11.3,2.8l-3.1-3.1C287.1,393.7,292,392.3,297.2,392.3z M269,420.6c0-5.5,1.6-10.6,4.3-14.9
	l3,3c-2,3.5-3.2,7.6-3.2,11.9c0,3.9,0.9,7.5,2.6,10.8l-3.1,3.1C270.3,430.3,269,425.6,269,420.6z M281.8,444.3l3-3
	c3.6,2.2,7.9,3.4,12.4,3.4c4.4,0,8.5-1.2,12-3.2l3,3c-4.4,2.7-9.5,4.3-15,4.3C291.6,448.9,286.3,447.2,281.8,444.3z"/>
</svg>
