<?xml version="1.0" encoding="utf-8"?>
<!-- Generator: Adobe Illustrator 26.3.1, SVG Export Plug-In . SVG Version: 6.00 Build 0)  -->
<svg version="1.1" id="Layer_1" xmlns="http://www.w3.org/2000/svg" xmlns:xlink="http://www.w3.org/1999/xlink" x="0px" y="0px"
	 viewBox="0 0 595.3 841.9" style="enable-background:new 0 0 595.3 841.9;" xml:space="preserve">
<style type="text/css">
	.st0{fill:#FFFFFF;}
	.st1{fill:#FFFFFF;stroke:#FFFFFF;stroke-miterlimit:10;}
</style>
<g>
	<path d="M314.6,433.8c0.2,0-0.5,2.3-2,4.2c-1.3,1.6-3.2,2.9-5.2,2.9c-4.5,0-9-6.9-8.1-7.1c0.9-0.2,4.2,1.8,8,1.8
		C311.1,435.6,314.3,433.7,314.6,433.8z"/>
	<path d="M325.6,424.5c-0.1,0-0.1,0-0.2,0.1c-0.9-8.9-8.4-15.9-17.5-15.9c-9.1,0-16.5,7-17.5,15.9c0,0-0.1,0-0.1,0c-0.5,0-1,1-1,2.2
		s0.4,2.2,1,2.2c0.1,0,0.1,0,0.2,0c1.2,8.7,8.5,15.4,17.4,15.4c8.9,0,16.3-6.8,17.4-15.5c0.1,0.1,0.2,0.1,0.3,0.1
		c0.5,0,0.9-1,0.9-2.2S326.1,424.5,325.6,424.5z M307.9,443.3c-9.1,0-16.6-7.5-16.6-16.8c0-1.9,0.3-3.7,0.9-5.4
		c3.3,4.1,4.5,1.2,8.1-0.4c3.4-1.5,5.6-2.2,8.9-1.3c3.3,0.9,5,2.8,7.7,4.1c1.8,0.9,4.7-1.5,6.7-1.3c0.4,0,0.5,0.7,0.8,4
		c0,0.3,0,0.5,0,0.8C324.2,436.2,317,443.3,307.9,443.3z"/>
	<path class="st0" d="M290.4,426.8c0,0.6-0.1,1-0.1,1c-0.1,0-0.1-0.6-0.1-1.2c0-0.6,0.1-1,0.1-1
		C290.3,425.7,290.4,426.2,290.4,426.8z"/>
	<path class="st0" d="M326,426.8c0,0.6-0.1,1-0.1,1c-0.1,0-0.1-0.6-0.1-1.2c0-0.6,0.1-1,0.1-1C325.9,425.7,326,426.2,326,426.8z"/>
	<path d="M307.9,443.7c-1.9,0-3.6-0.3-5.3-0.9c-1.7-0.6-3.2-1.5-4.7-2.6c-1.4-1.1-2.7-2.4-3.8-3.9s-2-3.2-2.6-5c0,0-0.6,3.4-0.6,5.9
		c0,1.2,0.2,2.1,0.3,2.5c0,0.2,0.2,0.2,0.4,0.1c0.3-0.2,0.8-0.2,0.7,1.3c0,2.1,1.3,3.3,1.3,3.3s2.7,0.4,6.8,0.4
		c3.7,0,7.4,0.7,7.4,0.7s5.1,0.2,9.5,0.2c3.7,0,5.2-0.7,5.2-0.7s0.6-1.4,0.6-3.6c0-2.1,0.6-1.2,0.7-1.4c0.5-0.7,0.3-1.6,0.3-3.4
		c0-2.5,0-5,0-5c-0.7,1.8-1.6,3.4-2.7,4.9c-1.1,1.5-2.3,2.8-3.8,3.8c-1.4,1.1-3,1.9-4.6,2.5C311.5,443.4,309.8,443.7,307.9,443.7z"
		/>
</g>
<g>
	<ellipse class="st1" cx="317.4" cy="394.2" rx="20" ry="20.2"/>
	<g>
		<path d="M326.5,401.5c0.2,0-0.5,2.3-2,4.2c-1.3,1.6-3.2,2.9-5.2,2.9c-4.5,0-9-6.9-8.1-7.1c0.9-0.2,4.2,1.8,8,1.8
			C323,403.3,326.1,401.5,326.5,401.5z"/>
		<path d="M335.1,392.3c-0.1,0-0.1,0-0.2,0.1c-0.9-8.9-8.4-15.9-17.5-15.9c-9.1,0-16.5,7-17.5,15.9c0,0-0.1,0-0.1,0
			c-0.5,0-1,1-1,2.2s0.4,2.2,1,2.2c0.1,0,0.1,0,0.2,0c1.2,8.7,8.5,15.4,17.4,15.4c8.9,0,16.3-6.8,17.4-15.5c0.1,0.1,0.2,0.1,0.3,0.1
			c0.5,0,0.9-1,0.9-2.2S335.6,392.3,335.1,392.3z M317.4,411c-9.1,0-16.6-7.5-16.6-16.8c0-1.9,0.3-3.7,0.9-5.4
			c3.3,4.1,5.8,3.1,9.4,1.5c3.4-1.5,3.7,1.1,7,2c3.3,0.9,5.2-1.1,7.9,0.3c1.8,0.9,5.2-2.9,7.2-2.7c0.4,0,0.5,0.7,0.8,4
			c0,0.3,0,0.5,0,0.8C333.6,404,326.4,411,317.4,411z"/>
		<path class="st0" d="M299.8,394.6c0,0.6-0.1,1-0.1,1c-0.1,0-0.1-0.6-0.1-1.2s0.1-1,0.1-1C299.8,393.5,299.8,394,299.8,394.6z"/>
		<path class="st0" d="M335.4,394.6c0,0.6-0.1,1-0.1,1c-0.1,0-0.1-0.6-0.1-1.2s0.1-1,0.1-1C335.4,393.5,335.4,394,335.4,394.6z"/>
	</g>
</g>
<g>
	
		<ellipse transform="matrix(0.7071 -0.7071 0.7071 0.7071 -207.2025 316.7168)" class="st1" cx="278.7" cy="408.5" rx="20" ry="20.2"/>
	<g>
		<path d="M290.3,407.3c0.1-0.1,1.3,2,1.6,4.4c0.2,2-0.2,4.3-1.6,5.7c-3.2,3.2-11.2,1.5-10.8,0.7s4.2-1.7,6.9-4.4
			C289.2,410.9,290.1,407.4,290.3,407.3z"/>
		<path d="M289.9,394.6c0,0-0.1,0.1-0.1,0.2c-7-5.7-17.2-5.3-23.6,1.1c-6.4,6.4-6.8,16.6-1.1,23.6c0,0-0.1,0-0.1,0.1
			c-0.4,0.4,0,1.4,0.9,2.2c0.9,0.9,1.9,1.2,2.2,0.9c0,0,0.1-0.1,0.1-0.2c7,5.3,16.9,4.9,23.2-1.4c6.3-6.3,6.7-16.3,1.4-23.3
			c0.1,0,0.2,0,0.3-0.1c0.3-0.3-0.1-1.3-0.9-2.2C291.2,394.7,290.2,394.2,289.9,394.6z M290.6,420.4c-6.5,6.5-17.1,6.4-23.6-0.2
			c-1.3-1.3-2.4-2.9-3.2-4.5c5.3,0.6,6.3-1.9,7.7-5.6c1.3-3.4,3.4-1.8,6.3-3.5c3-1.7,2.9-4.4,5.8-5.4c1.9-0.7,1.6-5.7,3.2-7
			c0.3-0.2,0.9,0.1,3.4,2.3c0.2,0.2,0.4,0.3,0.6,0.5C297.1,403.9,297,414,290.6,420.4z"/>
		<path class="st0" d="M266.6,421.2c0.4,0.4,0.7,0.8,0.6,0.8c-0.1,0-0.5-0.3-0.9-0.7s-0.7-0.8-0.6-0.8
			C265.7,420.4,266.2,420.7,266.6,421.2z"/>
		<path class="st0" d="M291.7,396c0.4,0.4,0.7,0.8,0.6,0.8c-0.1,0-0.5-0.3-0.9-0.7s-0.7-0.8-0.6-0.8
			C290.9,395.2,291.3,395.6,291.7,396z"/>
	</g>
</g>
</svg>
