<?xml version="1.0" encoding="utf-8"?>
<!-- Generator: Adobe Illustrator 26.2.1, SVG Export Plug-In . SVG Version: 6.00 Build 0)  -->
<svg version="1.1" id="Layer_1" xmlns="http://www.w3.org/2000/svg" xmlns:xlink="http://www.w3.org/1999/xlink" x="0px" y="0px"
	 viewBox="0 0 595.28 841.89" style="enable-background:new 0 0 595.28 841.89;" xml:space="preserve">
<style type="text/css">
	.st0{fill:none;stroke:#0072BC;stroke-miterlimit:10;}
	.st1{fill:#0072BC;}
</style>
<g>
	<path class="st0" d="M293.33,430.82c0.28-0.67,0.44-1.39,0.44-2.14c0-3.65-3.58-6.6-8-6.6c-3.32,0-6.17,1.67-7.38,4.05
		c-0.55-0.27-1.15-0.43-1.78-0.43c-2.44,0-4.48,2.26-4.95,5.26c-2.29,0.63-2.97,3.28-2.97,6.46c0,3.65,1.23,6.6,4.03,6.6
		c1.21,0,2.32-0.57,3.19-1.5l-1.77,3.05h4.79l-6.53,8.73l12.3-10.29h-3.95l0.19-2.09l-0.04-0.01c0.27,0.01,0.54,0.03,0.82,0.03
		c1.3,0,2.41-1.18,3.57-1.14c0.86,0.03,1.82,1.14,2.75,1.14c4.42,0,8-2.86,8-6.38C296.02,433.68,294.98,431.99,293.33,430.82z"/>
	<polygon class="st1" points="283.63,379.68 255.65,407.61 311.61,407.61 311.61,463.02 311.61,463.02 339.6,435.32 339.6,379.68 	
		"/>
</g>
</svg>
