<?xml version="1.0" encoding="utf-8"?>
<!-- Generator: Adobe Illustrator 26.3.1, SVG Export Plug-In . SVG Version: 6.00 Build 0)  -->
<svg version="1.1" id="Layer_1" xmlns="http://www.w3.org/2000/svg" xmlns:xlink="http://www.w3.org/1999/xlink" x="0px" y="0px"
	 viewBox="0 0 141.7 141.7" style="enable-background:new 0 0 141.7 141.7;" xml:space="preserve">
<style type="text/css">
	.st0{fill:#231F20;}
</style>
<path class="st0" d="M114.5,71.4c0.3-2.4,0.7-4.7,0.7-7.3c0-24.4-19.8-44-44.4-44c-24.4,0-44.4,19.8-44.4,44c0,2.5,0.2,4.9,0.7,7.3
	c-7.6,1.5-13.4,9.3-13.4,18.5c0,9.7,6.6,17.6,14.9,18.3l0,0h12.5V96.8v-7.3V71H32c-0.3-1.9-0.5-3.9-0.5-5.8
	c0-20.5,17.6-36.9,39.3-36.9s39.3,16.6,39.3,36.9c0,2-0.2,3.9-0.5,5.8h-9v18.1v7.1V107c-1.9,1.4-3.9,2.5-5.9,3.6
	c-5.4,2.5-11,3.9-16.9,4.1v-1.2H62.6v1.2h-1v5.1h1v1.9h15.1v-1.9c6.8,0,13.2-1.5,19.3-4.6c3.9-1.9,7.6-4.4,10.8-7.3h5.3
	c8.3-0.7,14.9-9,14.9-18.6C128.2,80.3,122.3,72.7,114.5,71.4z M33.3,81.7V81c0-2,0.8-3.6,2-3.9c0.2,0,0.2,0,0.3,0
	c1.4,0,2.4,1.7,2.4,3.9v4.7v8v4.6c0,2.2-1,3.9-2.4,3.9s-2.4-1.7-2.4-3.9V81.7H33.3z M108.7,98.3c0,2.2-1,3.9-2.4,3.9
	s-2.4-1.7-2.4-3.9v-4.9v-8V81c0-2.2,1-3.9,2.4-3.9h0.2c1.2,0.2,2.2,1.9,2.2,3.7c0,0,0,0,0,0.2C108.7,81,108.7,98.3,108.7,98.3z"/>
</svg>
