<?xml version="1.0" encoding="utf-8"?>
<!-- Generator: Adobe Illustrator 26.3.1, SVG Export Plug-In . SVG Version: 6.00 Build 0)  -->
<svg version="1.1" id="Layer_1" xmlns="http://www.w3.org/2000/svg" xmlns:xlink="http://www.w3.org/1999/xlink" x="0px" y="0px"
	 viewBox="0 0 141.7 141.7" style="enable-background:new 0 0 141.7 141.7;" xml:space="preserve">
<style type="text/css">
	.st0{fill-rule:evenodd;clip-rule:evenodd;}
</style>
<g>
	<path class="st0" d="M60.5,27.2L60.5,27.2L60.5,27.2L60.5,27.2L60.5,27.2c2,0,4.2-1.2,4.2-4.2c0-4.6-3.8-8.4-4.2-8.4l0,0l0,0l0,0
		l0,0c-0.4,0.4-4.2,3.8-4.2,8.4C55.9,26,58.6,27.2,60.5,27.2L60.5,27.2z"/>
	<path class="st0" d="M33.8,54L33.8,54L33.8,54L33.8,54L33.8,54c0-2-1.2-4.2-4.2-4.2c-4.6,0-8.4,3.8-8.4,4.2l0,0l0,0l0,0l0,0
		c0.4,0.4,3.8,4.2,8.4,4.2C32.6,58.2,33.8,55.9,33.8,54L33.8,54z"/>
	<path class="st0" d="M79.7,34.8L79.7,34.8L79.7,34.8L79.7,34.8c1.6,1.2,3.8,2.2,6.1,0c3.4-3,3.4-8.4,3.4-9.2l0,0l0,0l0,0l0,0
		c-0.4,0-6.1,0-9.6,3C77.4,31,78.2,33.3,79.7,34.8L79.7,34.8L79.7,34.8z"/>
	<path class="st0" d="M41.4,34.8L41.4,34.8L41.4,34.8L41.4,34.8L41.4,34.8c1.2-1.2,2.2-3.8,0-5.8c-3-3-8.4-3-9.2-3l0,0l0,0l0,0l0,0
		c0,0.4,0,5.8,3,9.2C37.6,37.1,39.8,36,41.4,34.8L41.4,34.8z"/>
	<path class="st0" d="M114.2,102c-13.5,6.5-22.6,1.6-31.4-3.4c-6.1-3.8-12.3-7.3-19.5-5l0,0l0,0c-2.2,1.2-4.2,1.6-6.9,1.6
		c-8.8,0-16.1-6.9-16.1-16.1c0-8.8,7.3-16.1,16.1-16.1c1.2,0,2.2,0,3.4,0.4c2.6,0.4,2.6,0.4,2.6,0.4c1.6-2.2,1.6-2.2,1.6-2.2
		c4.2-5,10.7-8,16.9-8c8.8,0,16.9,5,19.9,13.5c0.8,1.6,0.8,1.6,0.8,1.6c2,0.8,2,0.8,2,0.8c4.6,1.6,7.7,5.4,7.7,10.3
		c0,5.4-4.2,10-9.6,10.7h0.4c-4.6,0-9.2-2.2-13.9-5.4c-5.4-3-11.5-6.9-18.7-6.9c-2.2,0-4.2,2-4.2,4.2s2,4.2,4.2,4.2
		c5,0,9.6,2.6,14.2,5.8c5.8,3,11.5,6.5,18.3,6.5c0,0,0,0,0.4,0c0,0.4,0,0.4,0,0.4c10-0.8,18.1-9.2,18.1-19.5
		c0-7.7-4.6-14.9-11.5-18.1c-5.3-10.6-16-17-27.4-17c-0.8,0-1.6,0-2.6,0C76,38,68.7,33.4,60.9,33.4c-11.5,0-20.7,9.2-20.7,20.7
		c0,2,0.4,3.8,0.8,5.4c-5.8,4.6-9.2,11.5-9.2,19.1c0,13.9,11.1,24.9,24.9,24.9c3,0,6.5-0.4,9.6-1.6c-0.4,0-0.4,0-0.4,0
		c0.4-0.4,0.4-0.4,0.4-0.4c3-1.2,6.5,0.8,12.3,4.2c6.1,3.4,13.9,7.7,23.3,7.7c4.6,0,10-1.2,16.1-3.8c2.2-1.2,3-3.4,2.2-5.8
		C119.1,102,116.5,100.8,114.2,102L114.2,102z"/>
	<path class="st0" d="M90.8,119.5c-1.2-0.8-2.2-1.6-3.4-2.2c-8.4-5.8-14.9-10.3-27.6-8.8c-2.2,0.4-4.2,2.2-3.8,5
		c0.4,2.6,2.2,4.2,5,3.8c9.2-1.6,13.5,1.6,21.1,6.9c1.2,0.8,2.2,1.6,3.4,2.2c0.8,0.4,1.6,0.8,2.2,0.8c1.6,0,2.6-0.4,3.4-2
		C93.5,123.4,92.7,120.7,90.8,119.5L90.8,119.5z"/>
</g>
</svg>
