<?xml version="1.0" encoding="utf-8"?>
<!-- Generator: Adobe Illustrator 26.3.1, SVG Export Plug-In . SVG Version: 6.00 Build 0)  -->
<svg version="1.1" id="Layer_1" xmlns="http://www.w3.org/2000/svg" xmlns:xlink="http://www.w3.org/1999/xlink" x="0px" y="0px"
	 viewBox="0 0 141.7 141.7" style="enable-background:new 0 0 141.7 141.7;" xml:space="preserve">
<style type="text/css">
	.st0{fill:none;stroke:#000000;stroke-miterlimit:10;}
</style>
<g>
	<path class="st0" d="M65.1,84.1c0.4-1,0.5-1.9,0.5-2.9c0-4.9-4.9-9-10.9-9c-4.5,0-8.4,2.3-10.1,5.4c-0.7-0.4-1.5-0.5-2.4-0.5
		c-3.3,0-6.1,3.1-6.8,7.2c-3.1,0.8-4.1,4.5-4.1,8.8c0,4.9,1.6,9,5.4,9c1.6,0,3.1-0.8,4.4-2l-2.4,4.1h6.5L36.4,116l16.7-14h-5.4
		l0.3-2.9l0,0c0.4,0,0.7,0,1.1,0c1.8,0,3.3-1.6,4.9-1.5c1.2,0,2.4,1.5,3.8,1.5c6,0,10.9-3.9,10.9-8.7C68.6,88,67.2,85.7,65.1,84.1z"
		/>
	<polygon points="51.9,14.6 13.8,52.6 89.8,52.6 89.8,127.9 89.8,127.9 127.9,90.2 127.9,14.6 	"/>
</g>
</svg>
