<?xml version="1.0" encoding="utf-8"?>
<!-- Generator: Adobe Illustrator 26.3.1, SVG Export Plug-In . SVG Version: 6.00 Build 0)  -->
<svg version="1.1" id="Layer_1" xmlns="http://www.w3.org/2000/svg" xmlns:xlink="http://www.w3.org/1999/xlink" x="0px" y="0px"
	 viewBox="0 0 141.7 141.7" style="enable-background:new 0 0 141.7 141.7;" xml:space="preserve">
<style type="text/css">
	.st0{fill:#FFFFFF;}
	.st1{fill:none;}
</style>
<g id="Layer_1_00000081637002401655791220000014345480564699350426_">
	<g>
		<path d="M94.7,105.3c0.3,0-0.7,3.3-2.9,6c-1.9,2.3-4.6,4.2-7.5,4.2c-6.5,0-12.9-9.9-11.6-10.2s6,2.6,11.5,2.6
			S94.3,105.1,94.7,105.3z"/>
		<path d="M110.5,91.9c-0.1,0-0.1,0-0.3,0.1c-1.3-12.8-12.1-22.9-25.1-22.9S61.4,79.3,59.9,92h-0.1c-0.7,0-1.4,1.4-1.4,3.2
			c0,1.7,0.6,3.2,1.4,3.2c0.1,0,0.1,0,0.3,0c1.7,12.5,12.2,22.1,25,22.1s23.4-9.8,25-22.3c0.1,0.1,0.3,0.1,0.4,0.1
			c0.7,0,1.3-1.4,1.3-3.2C111.8,93.5,111.2,91.9,110.5,91.9z M85.1,118.9c-13.1,0-23.9-10.8-23.9-24.1c0-2.7,0.4-5.3,1.3-7.8
			c4.7,5.9,6.5,1.7,11.6-0.6c4.9-2.2,8-3.2,12.8-1.9c4.7,1.3,7.2,4,11.1,5.9c2.6,1.3,6.8-2.2,9.6-1.9c0.6,0,0.7,1,1.1,5.7
			c0,0.4,0,0.7,0,1.1C108.5,108.7,98.2,118.9,85.1,118.9z"/>
		<path class="st0" d="M59.9,95.2c0,0.9-0.1,1.4-0.1,1.4c-0.1,0-0.1-0.9-0.1-1.7s0.1-1.4,0.1-1.4C59.8,93.6,59.9,94.3,59.9,95.2z"/>
		<path class="st0" d="M111.1,95.2c0,0.9-0.1,1.4-0.1,1.4c-0.1,0-0.1-0.9-0.1-1.7s0.1-1.4,0.1-1.4C111,93.6,111.1,94.3,111.1,95.2z"
			/>
		<path d="M85.1,119.5c-2.7,0-5.2-0.4-7.6-1.3s-4.6-2.2-6.8-3.7c-2-1.6-3.9-3.4-5.5-5.6s-2.9-4.6-3.7-7.2c0,0-0.9,4.9-0.9,8.5
			c0,1.7,0.3,3,0.4,3.6c0,0.3,0.3,0.3,0.6,0.1c0.4-0.3,1.1-0.3,1,1.9c0,3,1.9,4.7,1.9,4.7s3.9,0.6,9.8,0.6c5.3,0,10.6,1,10.6,1
			s7.3,0.3,13.7,0.3c5.3,0,7.5-1,7.5-1s0.9-2,0.9-5.2c0-3,0.9-1.7,1-2c0.7-1,0.4-2.3,0.4-4.9c0-3.6,0-7.2,0-7.2
			c-1,2.6-2.3,4.9-3.9,7c-1.6,2.2-3.3,4-5.5,5.5c-2,1.6-4.3,2.7-6.6,3.6C90.3,119.1,87.8,119.5,85.1,119.5z"/>
	</g>
	<path class="st0" d="M73.5,48.9c0,0.9-0.1,1.4-0.1,1.4c-0.1,0-0.1-0.9-0.1-1.7s0.1-1.4,0.1-1.4C73.5,47.4,73.5,48.1,73.5,48.9z"/>
	<g>
		<path class="st1" d="M122.5,49c-0.5,13.4-10.8,23.5-23.8,23.5c-13.1,0-23.9-10.8-23.9-24.1c0-2.7,0.4-5.3,1.3-7.8
			c4.7,5.9,8.3,4.5,13.5,2.2c4.9-2.2,5.3,1.6,10.1,2.9s7.5-1.6,11.4,0.4c2.6,1.3,7.5-4.2,10.3-3.9c0.6,0,0.7,1,1.1,5.7
			C122.5,48.3,122.5,48.6,122.5,49z"/>
		<path d="M111.8,58.8c0.3,0-0.7,3.3-2.9,6c-1.9,2.3-4.6,4.2-7.5,4.2c-6.5,0-12.9-9.9-11.6-10.2s6,2.6,11.5,2.6
			C106.8,61.4,111.2,58.8,111.8,58.8z"/>
		<path class="st1" d="M98.7,19.4c-15.9,0-28.7,13-28.7,29s12.8,29,28.7,29s28.7-13,28.7-29S114.6,19.4,98.7,19.4z M124.2,52.1
			c-0.1,0-0.3,0-0.4-0.1c-1.6,12.5-12.2,22.3-25,22.3s-23.3-9.6-25-22.1c-0.2,0-0.2,0-0.3,0c-0.8,0-1.4-1.4-1.4-3.2s0.7-3.2,1.4-3.2
			h0.1c1.4-12.8,12.2-23,25.2-23s23.8,10.1,25.1,22.9c0.2-0.1,0.2-0.1,0.3-0.1c0.7,0,1.3,1.5,1.3,3.3S124.9,52.1,124.2,52.1z"/>
		<path d="M124.2,45.6c-0.1,0-0.1,0-0.3,0.1c-1.3-12.8-12.1-22.9-25.1-22.9S75,33,73.6,45.8h-0.1c-0.7,0-1.4,1.4-1.4,3.2
			s0.6,3.2,1.4,3.2c0.1,0,0.1,0,0.3,0c1.7,12.5,12.2,22.1,25,22.1s23.4-9.8,25-22.3c0.1,0.1,0.3,0.1,0.4,0.1c0.7,0,1.3-1.4,1.3-3.2
			S124.9,45.6,124.2,45.6z M122.5,49c-0.5,13.4-10.8,23.5-23.8,23.5c-13.1,0-23.9-10.8-23.9-24.1c0-2.7,0.4-5.3,1.3-7.8
			c4.7,5.9,8.3,4.5,13.5,2.2c4.9-2.2,5.3,1.6,10.1,2.9s7.5-1.6,11.4,0.4c2.6,1.3,7.5-4.2,10.3-3.9c0.6,0,0.7,1,1.1,5.7
			C122.5,48.3,122.5,48.6,122.5,49z"/>
		<path class="st0" d="M124.6,48.9c0,0.9-0.1,1.4-0.1,1.4c-0.1,0-0.1-0.9-0.1-1.7s0.1-1.4,0.1-1.4C124.6,47.4,124.6,48.1,124.6,48.9
			z"/>
	</g>
</g>
<g id="Layer_2_00000023968515601371992590000008461173126249795714_">
	<g>
		<path class="st1" d="M60.4,52.5c9.1,9.8,9,24.3-0.2,33.4c-9.3,9.3-24.5,9.3-33.9-0.1c-1.9-1.9-3.5-4-4.6-6.4
			c7.5,0.8,9.1-2.7,11.1-8c1.9-5,4.9-2.6,9.2-5.1s4.2-6.4,8.3-7.8c2.8-0.9,2.3-8.3,4.5-10c0.4-0.4,1.2,0.2,4.8,3.3
			C59.9,52,60.1,52.2,60.4,52.5z"/>
		<path d="M59.7,66.9c0.2-0.2,1.8,2.8,2.2,6.3c0.3,3-0.3,6.2-2.3,8.3c-4.6,4.6-16.1,2.1-15.4,1c0.7-1.1,6.1-2.4,10-6.3
			C58,72.3,59.3,67.4,59.7,66.9z"/>
		<path class="st1" d="M22.6,48.3c-11.2,11.2-11.1,29.5,0.2,40.8s29.6,11.4,40.8,0.2s11.1-29.5-0.2-40.8S33.8,37.1,22.6,48.3z
			 M63.8,53.4c-0.1,0.1-0.2,0.2-0.4,0.2c7.7,10,7.1,24.4-1.9,33.4c-9.1,9.1-23.3,9.7-33.3,2.1C28,89.3,28,89.3,28,89.4
			c-0.6,0.6-2,0-3.3-1.3s-1.8-2.8-1.3-3.3l0.1-0.1c-8.1-10-7.6-24.9,1.6-34.1S49,41,59,49.1c0.1-0.2,0.1-0.2,0.1-0.3
			c0.5-0.5,2,0.1,3.3,1.4C63.7,51.5,64.2,52.9,63.8,53.4z"/>
		<path d="M59.2,48.8c-0.1,0.1-0.1,0.1-0.1,0.3c-10-8.1-24.7-7.6-33.9,1.6s-9.6,24-1.6,34.1l-0.1,0.1c-0.5,0.5,0,2,1.3,3.3
			s2.7,1.8,3.3,1.3c0.1-0.1,0.1-0.1,0.2-0.2c10,7.6,24.3,7,33.3-2.1c9.1-9.1,9.6-23.5,1.9-33.4c0.1,0,0.3-0.1,0.4-0.2
			c0.5-0.5-0.1-1.9-1.3-3.2C61.1,49,59.7,48.3,59.2,48.8z M60.4,52.5c9.1,9.8,9,24.3-0.2,33.4c-9.3,9.3-24.5,9.3-33.9-0.1
			c-1.9-1.9-3.5-4-4.6-6.4c7.5,0.8,9.1-2.7,11.1-8c1.9-5,4.9-2.6,9.2-5.1s4.2-6.4,8.3-7.8c2.8-0.9,2.3-8.3,4.5-10
			c0.4-0.4,1.2,0.2,4.8,3.3C59.9,52,60.1,52.2,60.4,52.5z"/>
		<path class="st0" d="M61.8,50.9c0.6,0.6,0.9,1.1,0.9,1.1c-0.1,0.1-0.7-0.6-1.3-1.1c-0.6-0.6-0.9-1.1-0.9-1.1
			C60.7,49.8,61.2,50.3,61.8,50.9z"/>
	</g>
</g>
</svg>
